<?xml version="1.0" encoding="UTF-8"?>
<svg xmlns="http://www.w3.org/2000/svg" xmlns:xlink="http://www.w3.org/1999/xlink" width="128pt" height="128pt" viewBox="0 0 128 128" version="1.1">
<defs>
<linearGradient id="linear0" gradientUnits="userSpaceOnUse" x1="83.549" y1="48.71094" x2="83.549" y2="114.92019" gradientTransform="matrix(0.744186,0,0,0.744186,0,0)">
<stop offset="0" style="stop-color:#fcba03;stop-opacity:1;"/>
<stop offset="1" style="stop-color:#FF721B;stop-opacity:1;"/>
</linearGradient>
<linearGradient id="linear1" gradientUnits="userSpaceOnUse" x1="85.99731" y1="48.71094" x2="85.99731" y2="114.92019" gradientTransform="matrix(0.744186,0,0,0.744186,0,0)">
<stop offset="0" style="stop-color:#fcba03;stop-opacity:1;"/>
<stop offset="1" style="stop-color:#FF721B;stop-opacity:1;"/>
</linearGradient>
<linearGradient id="linear2" gradientUnits="userSpaceOnUse" x1="80.74863" y1="48.71094" x2="80.74863" y2="114.92019" gradientTransform="matrix(0.744186,0,0,0.744186,0,0)">
<stop offset="0" style="stop-color:#fcba03;stop-opacity:1;"/>
<stop offset="1" style="stop-color:#FF721B;stop-opacity:1;"/>
</linearGradient>
<linearGradient id="linear3" gradientUnits="userSpaceOnUse" x1="85.99731" y1="9.74219" x2="85.99731" y2="155.5955" gradientTransform="matrix(0.744186,0,0,0.744186,0,0)">
<stop offset="0" style="stop-color:#fcba03;stop-opacity:1;"/>
<stop offset="1" style="stop-color:#FF721B;stop-opacity:1;"/>
</linearGradient>
</defs>
<g id="surface1760533">
<path style=" stroke:none;fill-rule:nonzero;fill:url(#linear0);" d="M 90.78125 65.121094 C 75.3125 55.613281 52.683594 52.9375 34.476562 58.460938 C 32.414062 59.089844 31.25 61.269531 31.871094 63.335938 C 32.5 65.398438 34.683594 66.5625 36.75 65.9375 C 52.6875 61.101562 73.222656 63.5 86.695312 71.777344 C 88.53125 72.90625 90.9375 72.332031 92.066406 70.492188 C 93.199219 68.65625 92.621094 66.25 90.78125 65.121094 "/>
<path style=" stroke:none;fill-rule:nonzero;fill:url(#linear1);" d="M 97.382812 48.21875 C 78.78125 37.179688 49.351562 36.136719 31.644531 41.511719 C 29.167969 42.265625 27.773438 44.882812 28.519531 47.359375 C 29.269531 49.835938 31.890625 51.234375 34.367188 50.480469 C 49.789062 45.800781 76.4375 46.683594 92.59375 56.277344 C 94.816406 57.601562 97.695312 56.867188 99.019531 54.636719 C 100.339844 52.417969 99.613281 49.539062 97.382812 48.21875 "/>
<path style=" stroke:none;fill-rule:nonzero;fill:url(#linear2);" d="M 84.898438 79.84375 C 71.6875 71.773438 55.3125 69.890625 36.21875 74.257812 C 34.535156 74.640625 33.484375 76.316406 33.871094 77.996094 C 34.253906 79.679688 35.929688 80.730469 37.609375 80.347656 C 55.058594 76.363281 69.871094 77.984375 81.640625 85.179688 C 83.113281 86.078125 85.035156 85.617188 85.9375 84.140625 C 86.835938 82.667969 86.371094 80.742188 84.898438 79.84375 "/>
<path style=" stroke:none;fill-rule:nonzero;fill:url(#linear3);" d="M 63.996094 114 C 35.324219 114 11.996094 90.675781 11.996094 62 C 11.996094 33.324219 35.324219 10 63.996094 10 C 92.671875 10 115.996094 33.324219 115.996094 62 C 115.996094 90.675781 92.671875 114 63.996094 114 Z M 63.996094 14 C 37.53125 14 15.996094 35.535156 15.996094 62 C 15.996094 88.464844 37.53125 110 63.996094 110 C 90.464844 110 111.996094 88.464844 111.996094 62 C 111.996094 35.535156 90.464844 14 63.996094 14 Z M 63.996094 14 "/>
</g>
</svg>
