<?xml version="1.0" encoding="UTF-8"?>
<svg xmlns="http://www.w3.org/2000/svg" xmlns:xlink="http://www.w3.org/1999/xlink" width="128pt" height="128pt" viewBox="0 0 128 128" version="1.1">
<defs>
<linearGradient id="linear0" gradientUnits="userSpaceOnUse" x1="102.125" y1="12.31681" x2="102.125" y2="157.92556" gradientTransform="matrix(0.744186,0,0,0.744186,0,0)">
<stop offset="0" style="stop-color:rgb(16.470588%,96.078431%,59.607843%);stop-opacity:1;"/>
<stop offset="1" style="stop-color:rgb(0%,61.960784%,99.215686%);stop-opacity:1;"/>
</linearGradient>
<linearGradient id="linear1" gradientUnits="userSpaceOnUse" x1="87.14219" y1="12.31681" x2="87.14219" y2="157.92556" gradientTransform="matrix(0.744186,0,0,0.744186,0,0)">
<stop offset="0" style="stop-color:rgb(16.470588%,96.078431%,59.607843%);stop-opacity:1;"/>
<stop offset="1" style="stop-color:rgb(0%,61.960784%,99.215686%);stop-opacity:1;"/>
</linearGradient>
<linearGradient id="linear2" gradientUnits="userSpaceOnUse" x1="52.07838" y1="69.96906" x2="52.07838" y2="139.64519" gradientTransform="matrix(0.744186,0,0,0.744186,0,0)">
<stop offset="0" style="stop-color:rgb(58.431373%,98.039216%,80%);stop-opacity:1;"/>
<stop offset="1" style="stop-color:rgb(43.137255%,78.431373%,100%);stop-opacity:1;"/>
</linearGradient>
</defs>
<g id="surface1725921">
<path style=" stroke:none;fill-rule:nonzero;fill:url(#linear0);" d="M 83.863281 12.796875 C 83.214844 17.5 80.453125 21.316406 79.0625 22.980469 C 76.316406 26.277344 72.191406 28.722656 68.105469 29.625 C 68.601562 25.828125 70.792969 22.109375 73.058594 19.539062 C 75.707031 16.550781 79.835938 14.039062 83.863281 12.796875 M 87.78125 8 C 81.574219 8.398438 74.308594 12.097656 70.066406 16.882812 C 66.21875 21.246094 63.03125 27.722656 64.273438 33.992188 C 64.445312 33.996094 64.617188 34 64.789062 34 C 71.40625 34 78.167969 30.304688 82.136719 25.542969 C 85.945312 20.984375 88.832031 14.550781 87.78125 8 Z M 87.78125 8 "/>
<path style=" stroke:none;fill-rule:nonzero;fill:url(#linear1);" d="M 88.335938 42.007812 C 93.222656 42.007812 98.300781 44.046875 102.546875 47.605469 C 95.9375 52.652344 92 60.457031 92 69 C 92 79.148438 97.652344 88.277344 106.433594 92.886719 C 105.023438 95.878906 103.386719 98.742188 101.550781 101.4375 C 97.570312 107.257812 92.222656 113.945312 86.144531 113.992188 L 85.988281 113.992188 C 83.519531 113.992188 81.898438 113.371094 79.652344 112.507812 C 76.785156 111.402344 73.210938 110.027344 67.308594 109.996094 L 66.972656 110.003906 L 66.648438 110 C 60.785156 110.027344 57.214844 111.402344 54.347656 112.507812 C 52.101562 113.371094 50.480469 113.996094 48.011719 113.996094 L 47.84375 113.996094 C 41.777344 113.945312 36.429688 107.261719 32.453125 101.445312 C 19.847656 82.941406 19.835938 62.894531 26.226562 53.425781 C 30.898438 46.492188 38.527344 42.011719 45.667969 42.011719 C 49.507812 42.011719 52.628906 42.964844 55.9375 43.972656 C 59.195312 44.96875 62.570312 46 66.5 46 L 67.5 46 C 71.429688 46 74.804688 44.96875 78.066406 43.972656 C 81.375 42.960938 84.496094 42.007812 88.335938 42.007812 M 88.335938 38.007812 C 79.871094 38.007812 74.496094 42 67.5 42 C 67.3125 42 67 42 67 42 C 67 42 66.6875 42 66.5 42 C 59.503906 42 54.128906 38.007812 45.664062 38.007812 C 37.355469 38.007812 28.5 42.882812 22.90625 51.191406 C 15 62.902344 16.347656 84.910156 29.148438 103.695312 C 33.722656 110.382812 39.835938 117.929688 47.8125 117.992188 C 47.878906 117.992188 47.945312 117.992188 48.011719 117.992188 C 54.960938 117.992188 57.132812 114.046875 66.671875 114 C 66.675781 114 66.683594 114 66.691406 114 C 66.796875 114 66.894531 114.007812 67 114.007812 C 67.105469 114.007812 67.203125 114 67.308594 114 C 67.316406 114 67.324219 114 67.328125 114 C 76.867188 114.046875 79.042969 117.992188 85.988281 117.992188 C 86.054688 117.992188 86.121094 117.992188 86.1875 117.992188 C 94.164062 117.925781 100.277344 110.382812 104.851562 103.695312 C 107.707031 99.507812 109.960938 95.15625 111.699219 90.796875 C 102.578125 87.742188 96 79.148438 96 69 C 96 59.910156 101.285156 52.078125 108.933594 48.34375 C 103.371094 41.785156 95.644531 38.007812 88.335938 38.007812 Z M 88.335938 38.007812 "/>
<path style=" stroke:none;fill-rule:nonzero;fill:url(#linear2);" d="M 44.703125 103.921875 C 42.945312 102.1875 41.046875 99.839844 39.0625 96.941406 C 33.304688 88.484375 30 78.664062 30 70 C 30 62.964844 33.300781 56.597656 39.292969 52.070312 L 41.703125 55.261719 C 36.734375 59.015625 34 64.246094 34 70 C 34 77.882812 37.050781 86.878906 42.371094 94.6875 C 44.203125 97.371094 45.9375 99.519531 47.511719 101.074219 Z M 44.703125 103.921875 "/>
</g>
</svg>
