<?xml version="1.0" encoding="UTF-8"?>
<svg xmlns="http://www.w3.org/2000/svg" xmlns:xlink="http://www.w3.org/1999/xlink" width="128pt" height="128pt" viewBox="0 0 128 128" version="1.1">
<defs>
<linearGradient id="linear0" gradientUnits="userSpaceOnUse" x1="86" y1="37.625" x2="86" y2="120.9375" gradientTransform="matrix(0.744186,0,0,0.744186,0,0)">
<stop offset="0" style="stop-color:rgb(16.470588%,96.078431%,59.607843%);stop-opacity:1;"/>
<stop offset="1" style="stop-color:rgb(0%,61.960784%,99.215686%);stop-opacity:1;"/>
</linearGradient>
<linearGradient id="linear1" gradientUnits="userSpaceOnUse" x1="118.25" y1="48.375" x2="118.25" y2="110.1875" gradientTransform="matrix(0.744186,0,0,0.744186,0,0)">
<stop offset="0" style="stop-color:rgb(58.431373%,98.039216%,80%);stop-opacity:1;"/>
<stop offset="1" style="stop-color:rgb(43.137255%,78.431373%,100%);stop-opacity:1;"/>
</linearGradient>
</defs>
<g id="surface1760725">
<path style=" stroke:none;fill-rule:nonzero;fill:url(#linear0);" d="M 44 40.039062 L 44 90 L 48 90 L 48 40.660156 C 46.699219 40.300781 45.359375 40.101562 44 40.039062 Z M 28 47.398438 L 28 90 L 32 90 L 32 43.578125 C 30.480469 44.640625 29.140625 45.941406 28 47.398438 Z M 12 57.039062 L 12 86.960938 C 13.238281 87.78125 14.578125 88.460938 16 88.960938 L 16 55.039062 C 14.578125 55.539062 13.238281 56.21875 12 57.039062 Z M 8 83.28125 L 8 60.71875 C 5.5 63.800781 4 67.738281 4 72 C 4 76.261719 5.5 80.199219 8 83.28125 Z M 22 54 C 21.320312 54 20.660156 54.039062 20 54.121094 L 20 89.878906 C 20.660156 89.960938 21.320312 90 22 90 C 22.480469 90 22.960938 89.980469 23.480469 89.921875 C 23.640625 89.980469 23.820312 90 24 90 L 24 54.121094 C 23.339844 54.039062 22.660156 54 22 54 Z M 36 41.378906 L 36 90 L 40 90 L 40 40.261719 C 38.621094 40.460938 37.28125 40.839844 36 41.378906 Z M 106 54 C 104.640625 54 103.300781 54.140625 102 54.441406 L 102 54 C 102 39.660156 90.339844 28 76 28 C 66.039062 28 56.960938 33.78125 52.640625 42.640625 C 52.441406 42.519531 52.21875 42.398438 52 42.28125 L 52 90 C 52 90 105.519531 90 106 90 C 115.921875 90 124 81.921875 124 72 C 124 62.078125 115.921875 54 106 54 Z M 106 86 C 105.398438 86 56 86 56 86 L 56 44.898438 C 59.539062 37.121094 67.378906 32 76 32 C 88.140625 32 98 41.859375 98 54 C 98 54.898438 97.921875 55.859375 97.761719 57 C 97.679688 57.699219 97.960938 58.421875 98.539062 58.859375 C 99.121094 59.300781 99.878906 59.378906 100.539062 59.101562 C 102.261719 58.378906 104.101562 58 106 58 C 113.71875 58 120 64.28125 120 72 C 120 79.71875 113.71875 86 106 86 Z M 106 86 "/>
<path style=" stroke:none;fill-rule:nonzero;fill:url(#linear1);" d="M 116 72 C 116 77.519531 111.519531 82 106 82 L 60 82 L 60 45.800781 L 60.238281 45.359375 C 63.421875 39.578125 69.460938 36 76 36 C 85.921875 36 94 44.078125 94 54 C 94 54.699219 93.941406 55.480469 93.800781 56.441406 C 93.519531 58.601562 94.398438 60.738281 96.121094 62.039062 C 97.179688 62.839844 98.421875 63.28125 99.761719 63.28125 C 100.558594 63.28125 101.359375 63.121094 102.101562 62.800781 C 103.339844 62.261719 104.640625 62 106 62 C 111.519531 62 116 66.480469 116 72 Z M 116 72 "/>
</g>
</svg>
